# xmcd CD database file
#
# Track frame offsets:
#	150
#	18962
#	34872
#	54510
#	66692
#	83295
#	93490
#	111542
#	123762
#	142107
#	156897
#	175170
#	188167
#	207082
#	230610
#	244720
#	266490
#	275822
#	295095
#	311202
#	328705
#
# Disc length: 4550 seconds
#
# Revision: 3
# Processed by: cddbd v1.4PL0 Copyright (c) Steve Scherf et al.
# Submitted via: CDex 1.40Release
#
DISCID=3811c415
DTITLE=Jan Spaleny - Ted bych to udelal lip (1979 - 1985) CD2
DYEAR=2001
DGENRE=Blues
TTITLE0=Myslim ted na Tebe, moje milovana
TTITLE1=Uz zrezly bezy
TTITLE2=Stoupa dym
TTITLE3=Aceton blues
TTITLE4=Asi v tom bude nejakej hacek
TTITLE5=Bojler blues
TTITLE6=Spital u Sv. Jakuba
TTITLE7=Hadej
TTITLE8=Tak jo
TTITLE9=My lasky poutovy
TTITLE10=Mezi brehy
TTITLE11=Blues nadrazni ulice
TTITLE12=How have You been, my darling children
TTITLE13=White room
TTITLE14=San Francisco bay blues
TTITLE15=Doutna stary kmen
TTITLE16=Vapno
TTITLE17=Neusinej
TTITLE18=Nemusis se ptat
TTITLE19=Jenom uz neplakej
TTITLE20=Poradny blues
EXTD=YEAR: 2001 ID3G: 0
EXTT0=
EXTT1=
EXTT2=
EXTT3=
EXTT4=
EXTT5=
EXTT6=
EXTT7=
EXTT8=
EXTT9=
EXTT10=
EXTT11=
EXTT12=
EXTT13=
EXTT14=
EXTT15=
EXTT16=
EXTT17=
EXTT18=
EXTT19=
EXTT20=
PLAYORDER=
